<svg xmlns="http://www.w3.org/2000/svg" width="27" height="45" viewBox="0 0 27 45"><path fill="#8F8F8F" opacity="0.7" d="M26.7 7.3c-0.3-1.5-0.9-2.8-1.9-4 -1-1.2-2.6-2-4.5-2.6C18.2 0.3 14.4 0 8.8 0H0v37.5c0.8-0.9 1.9-1.7 3.2-2.3 0.7-0.3 1.5-0.6 2.2-0.7 1-0.2 2-0.1 3.1 0.1 0.7 0.1 1.1 0.2 1.3 0.3 0.2 0.1 0.5 0.2 0.9 0.5l1.6-7.9 -5.2 2.4 4.4-29.8c0.5 2.4 1.9 5.7 4.3 9.8 0.5 0.9 1 1.8 1.6 2.7 0 0 0 0 0 0.1 2.5 4.1 3.9 7.6 4.4 10.5 0.5 3.2-0.1 6.4-1.9 9.4 1.1-3.8 0.8-7.6-0.9-11.5 -1-2.4-3-4.5-5.7-6.5l-2.2 10.2 5.8-3.1L12.7 39.2c0 0.1-0.1 0.4-0.3 0.9 -0.2 0.6-0.4 1-0.5 1.3 -0.9 1.5-2.2 2.7-4 3.6h6.9c2.8 0 4.9-0.2 6.3-0.5 1.4-0.3 2.6-0.8 3.5-1.6 0.9-0.8 1.6-1.8 2-3.2 0.4-1.4 0.6-4.1 0.6-8.1V15.9C27.1 11.6 27 8.8 26.7 7.3z"/></svg>