<?xml version="1.0" encoding="utf-8"?>
<!-- Generator: Adobe Illustrator 16.0.0, SVG Export Plug-In . SVG Version: 6.00 Build 0)  -->
<!DOCTYPE svg PUBLIC "-//W3C//DTD SVG 1.1//EN" "http://www.w3.org/Graphics/SVG/1.1/DTD/svg11.dtd">
<svg version="1.1" id="Layer_1" xmlns="http://www.w3.org/2000/svg" xmlns:xlink="http://www.w3.org/1999/xlink" x="0px" y="0px"
	 width="512px" height="512px" viewBox="0 0 512 512" enable-background="new 0 0 512 512" xml:space="preserve">
<path fill="#8F8F8F" d="M381.366,110.7c-2.862-14.336-8.605-26.761-18.165-38.234c-9.563-11.469-24.853-19.117-43.01-24.848
	c-20.075-3.827-56.396-6.693-109.934-6.693h-84.116v358.457c7.642-8.606,18.16-16.25,30.588-21.983
	c6.688-2.865,14.336-5.738,21.03-6.69c9.557-1.914,19.113-0.952,29.631,0.952c6.694,0.963,10.519,1.915,12.423,2.872
	c1.918,0.95,4.779,1.905,8.607,4.78l15.293-75.52l-49.709,22.943L236.07,41.882c4.775,22.94,18.159,54.482,41.101,93.676
	c4.779,8.6,9.556,17.208,15.302,25.809c0,0,0,0,0,0.957c23.898,39.187,37.273,72.643,42.055,100.367
	c4.773,30.59-0.957,61.17-18.156,89.849c10.509-36.323,7.643-72.646-8.611-109.922c-9.558-22.94-28.674-43.014-54.486-62.134
	l-21.026,97.499l55.439-29.627l-40.147,167.28c0,0.952-0.957,3.815-2.867,8.597c-1.909,5.741-3.829,9.561-4.785,12.438
	c-8.599,14.336-21.022,25.799-38.23,34.408h65.953c26.761,0,46.84-1.914,60.219-4.779c13.388-2.867,24.86-7.646,33.455-15.293
	c8.604-7.652,15.301-17.213,19.12-30.59c3.821-13.383,5.735-39.198,5.735-77.433V192.909
	C385.184,151.808,384.233,125.041,381.366,110.7z"/>
<rect opacity="0" width="512" height="512"/>
</svg>
